<?xml version="1.0" encoding="UTF-8"?>
<svg xmlns="http://www.w3.org/2000/svg" xmlns:xlink="http://www.w3.org/1999/xlink" width="809px" height="644px" viewBox="0 0 809 644" version="1.1">
<g id="surface1">
<path style=" stroke:none;fill-rule:nonzero;fill:rgb(0%,0%,0%);fill-opacity:1;" d="M 60.816406 96.601562 C 59.394531 98.023438 58.394531 101.300781 58.394531 103.867188 C 58.394531 106.429688 57.828125 114.410156 56.972656 121.535156 C 56.257812 128.800781 54.976562 142.621094 54.125 152.453125 C 53.410156 162.28125 51.988281 178.097656 51.132812 187.644531 C 49.992188 200.609375 49.992188 208.300781 51.273438 218.277344 C 53.269531 234.234375 54.835938 239.21875 63.382812 255.746094 C 66.941406 262.730469 71.640625 273.984375 73.777344 280.679688 L 77.625 292.792969 L 77.625 351.207031 C 77.625 407.914062 77.195312 414.753906 72.496094 443.390625 C 68.792969 466.757812 67.9375 470.890625 63.808594 489.410156 C 62.8125 494.253906 61.957031 506.507812 61.957031 517.90625 C 61.957031 537.285156 62.527344 540.703125 67.511719 551.390625 C 73.921875 565.496094 92.4375 570.910156 103.6875 561.789062 C 116.792969 551.246094 121.492188 530.585938 117.648438 499.386719 C 116.363281 489.125 114.65625 477.585938 113.945312 473.738281 C 111.09375 459.492188 107.390625 436.835938 105.113281 421.023438 C 104.257812 414.753906 103.261719 384.976562 102.976562 354.769531 C 102.40625 300.628906 102.835938 292.648438 107.25 277.832031 C 108.957031 271.992188 117.648438 253.039062 121.066406 247.910156 C 129.753906 234.375 131.460938 208.445312 126.90625 156.726562 C 126.191406 147.75 124.769531 131.792969 123.914062 121.25 C 123.058594 110.707031 122.0625 100.589844 121.636719 98.878906 C 120.636719 94.890625 115.652344 93.464844 111.523438 96.316406 L 108.246094 98.308594 L 108.246094 148.890625 C 108.246094 181.230469 107.675781 199.46875 106.820312 199.46875 C 105.96875 199.46875 105.253906 180.945312 105.113281 148.746094 C 104.6875 99.734375 104.542969 97.882812 101.835938 96.171875 C 99.984375 94.890625 97.847656 94.746094 95.855469 95.601562 L 92.578125 96.742188 L 92.578125 148.175781 C 92.578125 192.773438 92.292969 199.46875 90.441406 199.46875 C 88.589844 199.46875 88.304688 192.914062 88.304688 149.03125 C 88.304688 104.578125 88.019531 98.308594 86.027344 96.171875 C 84.035156 94.179688 79.332031 94.320312 76.910156 96.457031 C 76.484375 96.886719 76.058594 120.109375 75.773438 148.320312 C 75.488281 192.058594 75.058594 199.46875 73.351562 199.46875 C 71.5 199.46875 71.214844 192.203125 71.214844 148.175781 C 71.214844 99.023438 71.074219 96.886719 68.507812 95.460938 C 64.664062 93.464844 63.523438 93.609375 60.816406 96.601562 Z M 66.941406 150.171875 C 66.941406 194.199219 67.226562 201.035156 69.222656 202.886719 C 72.355469 206.023438 76.34375 205.738281 78.90625 202.035156 C 80.898438 199.328125 81.183594 191.773438 81.183594 149.316406 C 81.183594 117.257812 81.753906 99.734375 82.609375 99.734375 C 83.464844 99.734375 84.035156 117.6875 84.035156 150.742188 C 84.035156 188.5 84.460938 202.175781 85.742188 203.457031 C 88.019531 205.738281 91.441406 205.59375 94.859375 203.171875 C 97.421875 201.179688 97.5625 198.472656 98.277344 150.027344 L 99.132812 99.023438 L 99.414062 149.460938 C 99.699219 194.199219 99.984375 200.324219 102.121094 202.605469 C 104.96875 205.738281 107.960938 205.878906 111.378906 202.746094 C 113.800781 200.609375 113.945312 197.046875 113.945312 150.027344 C 113.945312 110.277344 114.371094 99.59375 115.796875 100.019531 C 116.933594 100.445312 117.789062 105.574219 118.5 114.835938 C 119.070312 122.53125 120.210938 136.921875 120.921875 146.753906 C 126.476562 211.292969 125.765625 229.105469 117.078125 245.0625 C 109.957031 258.167969 105.539062 267.429688 102.40625 276.40625 C 99.273438 285.382812 99.132812 287.519531 98.5625 341.234375 C 97.992188 401.359375 98.988281 417.601562 105.253906 453.078125 C 105.96875 457.355469 107.25 464.761719 108.105469 469.464844 C 108.816406 474.167969 110.242188 481.574219 110.953125 485.847656 C 116.222656 513.492188 115.652344 532.296875 109.101562 546.546875 C 104.6875 555.949219 101.125 559.511719 94.574219 560.792969 C 82.464844 563.074219 74.0625 556.945312 69.078125 542.414062 C 65.945312 533.007812 64.664062 512.207031 66.800781 501.808594 C 69.789062 486.277344 76.628906 449.519531 78.195312 440.257812 C 81.328125 422.019531 82.609375 393.523438 82.609375 347.789062 C 82.609375 292.933594 81.753906 284.8125 74.492188 267.859375 C 69.648438 256.601562 67.796875 252.753906 65.519531 249.335938 C 56.542969 235.800781 53.410156 209.300781 56.972656 176.246094 C 59.109375 155.015625 61.101562 131.363281 62.097656 114.980469 C 62.8125 103.582031 63.523438 99.734375 64.949219 99.734375 C 66.65625 99.734375 66.941406 108.566406 66.941406 150.171875 Z M 66.941406 150.171875 "/>
<path style=" stroke:none;fill-rule:nonzero;fill:rgb(0%,0%,0%);fill-opacity:1;" d="M 679.675781 97.3125 L 676.539062 100.589844 L 676.539062 324.707031 C 676.539062 569.625 675.972656 553.527344 684.660156 559.652344 C 694.34375 566.347656 704.597656 566.347656 713.714844 559.796875 C 718.414062 556.519531 722.402344 548.253906 722.402344 542.269531 C 722.261719 537.710938 720.265625 520.1875 717.84375 504.371094 C 715.707031 489.980469 714 478.011719 711.578125 460.203125 C 710.296875 451.226562 708.585938 439.542969 707.875 434.273438 C 705.882812 420.738281 706.023438 367.164062 708.160156 362.75 C 709.867188 358.757812 710.867188 358.332031 720.695312 356.90625 C 731.945312 355.054688 738.925781 350.210938 745.191406 339.523438 C 748.324219 334.253906 748.46875 333.113281 748.183594 300.769531 C 748.039062 265.4375 745.902344 241.074219 740.492188 208.730469 C 739.066406 200.609375 738.355469 196.761719 734.792969 181.230469 C 731.089844 164.703125 726.25 147.890625 724.683594 146.039062 C 724.113281 145.328125 723.542969 143.902344 723.542969 142.761719 C 723.542969 140.769531 712.433594 116.6875 710.867188 115.40625 C 710.4375 114.980469 708.160156 112.128906 705.882812 108.996094 C 695.625 94.746094 686.082031 90.472656 679.675781 97.3125 Z M 696.195312 105.292969 C 704.457031 113.980469 705.453125 115.40625 711.71875 127.519531 C 720.265625 144.046875 724.964844 158.71875 732.089844 191.632812 C 740.347656 229.960938 747.328125 310.886719 743.765625 327.414062 C 740.632812 341.234375 731.519531 350.636719 719.269531 352.492188 C 709.300781 354.058594 705.453125 356.050781 703.601562 360.613281 C 701.464844 365.742188 702.460938 439.257812 704.742188 451.65625 C 706.449219 460.773438 708.445312 473.3125 710.722656 489.410156 C 711.578125 495.679688 712.859375 504.65625 713.570312 509.359375 C 718.984375 545.261719 718.984375 547.398438 712.148438 554.523438 C 706.734375 560.082031 696.90625 561.648438 689.929688 557.800781 C 680.101562 552.527344 680.8125 569.484375 680.8125 325.132812 C 680.8125 203.601562 681.242188 103.296875 681.667969 102.015625 C 683.378906 97.597656 690.640625 99.308594 696.195312 105.292969 Z M 696.195312 105.292969 "/>
<path style=" stroke:none;fill-rule:nonzero;fill:rgb(0%,0%,0%);fill-opacity:1;" d="M 536.675781 144.472656 C 533.683594 145.613281 528.699219 148.746094 525.707031 151.453125 C 516.59375 159.71875 499.5 160.574219 488.535156 153.304688 C 481.269531 148.605469 477.566406 148.746094 471.441406 153.875 C 467.597656 157.296875 465.175781 158.152344 460.046875 158.152344 C 456.488281 158.152344 452.214844 157.152344 450.648438 156.011719 C 446.660156 153.019531 444.238281 153.449219 437.828125 158.007812 C 434.125 160.714844 429.566406 162.425781 424.441406 163.136719 C 420.167969 163.707031 413.898438 165.417969 410.625 166.839844 C 406.921875 168.550781 401.367188 169.546875 396.238281 169.546875 C 391.539062 169.546875 382.992188 170.546875 377.296875 171.972656 C 367.753906 174.109375 366.042969 174.960938 359.066406 181.945312 C 351.515625 189.496094 348.097656 190.921875 344.964844 187.785156 C 343.683594 186.503906 341.972656 186.644531 337.558594 187.929688 C 332.859375 189.351562 331.148438 190.777344 329.582031 194.625 C 327.304688 200.039062 324.027344 202.175781 321.464844 199.613281 C 318.1875 196.335938 313.488281 198.042969 306.652344 205.3125 C 302.949219 209.300781 297.25 213.71875 293.976562 215.140625 C 290.839844 216.566406 285 220.984375 281.011719 224.972656 C 272.324219 233.804688 264.207031 237.511719 250.535156 239.078125 C 240.421875 240.21875 239.28125 240.644531 225.324219 250.617188 C 217.207031 256.316406 207.945312 261.875 204.671875 262.871094 C 193.847656 266.292969 168.921875 277.972656 165.503906 281.109375 C 158.808594 287.378906 156.246094 294.5 157.101562 305.472656 C 157.8125 315.160156 157.953125 315.589844 164.933594 322.285156 C 170.773438 327.839844 173.050781 329.125 177.183594 329.125 C 180.03125 329.125 183.589844 328.269531 185.160156 327.414062 C 187.4375 325.988281 188.578125 325.988281 190.570312 327.414062 C 191.851562 328.410156 194.132812 329.550781 195.554688 329.980469 C 198.40625 330.976562 198.6875 335.109375 196.269531 339.097656 C 194.703125 341.660156 194.984375 342.515625 199.117188 346.363281 C 203.390625 350.496094 203.675781 351.066406 201.679688 353.203125 C 197.835938 357.335938 199.117188 360.894531 206.378906 367.164062 C 216.492188 376 220.339844 375.429688 228.457031 364.316406 C 231.449219 360.183594 232.160156 358.046875 231.449219 354.769531 C 230.59375 351.066406 231.164062 349.78125 235.007812 346.222656 C 237.574219 343.800781 241.277344 341.519531 243.414062 341.09375 C 245.40625 340.523438 247.96875 339.238281 248.824219 337.957031 C 250.25 336.246094 252.953125 335.820312 259.507812 335.960938 C 265.347656 336.246094 270.332031 335.394531 273.75 333.96875 C 280.015625 331.117188 288.277344 332.117188 297.679688 336.675781 C 302.804688 339.238281 304.800781 341.378906 307.933594 347.644531 C 313.203125 358.332031 313.058594 365.882812 307.789062 375.285156 C 303.800781 382.269531 303.515625 383.550781 303.234375 401.21875 L 302.804688 419.882812 L 309.640625 429.429688 C 313.34375 434.699219 317.332031 441.824219 318.613281 445.386719 C 322.035156 455.5 325.167969 456.355469 353.9375 456.5 C 380.429688 456.640625 384.417969 457.640625 395.8125 467.183594 L 400.796875 471.316406 L 396.953125 475.875 C 391.964844 481.71875 392.679688 484.710938 401.652344 492.972656 C 409.34375 500.097656 411.621094 503.945312 411.621094 509.214844 C 411.621094 511.066406 413.332031 514.773438 415.324219 517.195312 C 418.742188 521.183594 419.738281 521.613281 426.292969 521.183594 C 433.269531 520.757812 433.699219 520.472656 442.101562 510.5 C 453.070312 497.53125 463.179688 491.976562 470.871094 494.398438 C 474.433594 495.539062 476.996094 495.679688 479.703125 494.683594 C 481.839844 493.828125 485.683594 492.832031 488.390625 492.402344 C 495.796875 491.121094 521.863281 469.320312 528.984375 458.492188 C 531.546875 454.503906 536.960938 434.84375 536.960938 429.144531 C 536.960938 423.730469 541.945312 415.75 549.921875 408.199219 C 557.613281 400.933594 575.558594 387.539062 577.550781 387.539062 C 578.121094 387.539062 582.535156 385.6875 587.523438 383.265625 C 595.070312 379.703125 596.78125 378.136719 598.773438 373.292969 C 600.054688 370.015625 600.625 365.882812 600.199219 363.320312 C 599.628906 361.039062 600.054688 357.050781 601.054688 354.769531 C 603.046875 349.925781 607.460938 346.792969 608.886719 349.070312 C 612.019531 354.058594 621.421875 345.9375 623.128906 337.101562 C 624.269531 330.265625 628.828125 321.003906 635.804688 311.3125 C 642.214844 302.339844 642.640625 296.640625 637.085938 291.792969 C 634.808594 289.941406 629.964844 284.8125 626.261719 280.394531 C 622.558594 275.980469 618 271.992188 616.148438 271.5625 C 614.296875 271.136719 609.742188 267.144531 606.179688 262.871094 C 600.484375 256.316406 598.632812 255.035156 594.644531 255.035156 C 587.664062 255.035156 585.671875 256.175781 581.253906 262.730469 C 577.125 268.714844 570.003906 272.132812 562.027344 272.132812 C 560.03125 272.132812 558.039062 272.703125 557.613281 273.558594 C 557.183594 274.269531 553.910156 274.980469 550.347656 274.980469 C 545.078125 274.980469 543.226562 274.128906 538.8125 269.851562 C 535.820312 267.003906 529.410156 261.445312 524.425781 257.457031 C 517.445312 251.902344 514.457031 248.339844 511.320312 241.640625 C 506.195312 230.8125 504.628906 222.976562 507.050781 220.128906 C 509.1875 217.5625 517.160156 217.277344 523.429688 219.558594 C 527.417969 220.984375 528.554688 220.699219 533.96875 217.421875 C 540.09375 213.433594 544.082031 206.878906 544.082031 200.464844 C 544.082031 195.765625 535.960938 185.222656 532.402344 185.222656 C 530.835938 185.222656 526.847656 187.929688 523.570312 191.207031 C 516.449219 198.472656 508.757812 200.609375 503.0625 197.1875 C 498.644531 194.625 493.660156 184.082031 495.085938 180.378906 C 496.792969 175.960938 503.488281 173.679688 512.035156 174.679688 C 519.011719 175.53125 520.4375 175.246094 525.136719 171.972656 C 528.128906 169.976562 533.683594 167.554688 537.671875 166.699219 C 541.515625 165.84375 546.789062 163.566406 549.351562 161.570312 C 553.195312 158.578125 554.050781 157.011719 554.050781 152.453125 C 554.050781 143.332031 547.785156 140.484375 536.675781 144.472656 Z M 548.921875 147.605469 C 552.199219 150.882812 551.773438 156.296875 548.070312 158.71875 C 546.21875 159.859375 540.804688 162.140625 535.960938 163.566406 C 531.121094 165.132812 525.421875 167.695312 523.285156 169.40625 C 519.867188 172.113281 518.160156 172.398438 510.609375 171.6875 C 495.511719 170.117188 488.390625 177.8125 493.660156 189.921875 C 496.9375 197.757812 498.359375 199.46875 502.632812 201.035156 C 509.328125 203.742188 518.015625 201.035156 524.996094 194.339844 C 528.414062 190.921875 531.832031 188.070312 532.542969 188.070312 C 533.257812 188.070312 535.394531 190.636719 537.527344 193.628906 C 541.089844 198.757812 541.230469 199.613281 539.808594 205.027344 C 538.667969 209.300781 536.816406 211.722656 532.972656 214.285156 C 528.128906 217.277344 527.417969 217.421875 523 215.570312 C 516.59375 212.863281 506.050781 214.429688 504.058594 218.417969 C 499.929688 226.113281 508.472656 248.625 518.585938 256.746094 C 521.863281 259.308594 528.699219 265.152344 533.683594 269.710938 L 542.800781 278.117188 L 550.917969 277.40625 C 555.332031 276.976562 563.167969 275.835938 568.292969 274.839844 C 576.414062 272.988281 577.835938 272.273438 581.824219 267.003906 C 590.511719 255.035156 598.773438 255.179688 605.183594 267.429688 C 606.039062 269 609.597656 271.847656 613.015625 273.558594 C 616.863281 275.410156 621.5625 279.398438 624.839844 283.671875 C 627.828125 287.519531 631.53125 291.652344 633.242188 292.792969 C 638.511719 296.210938 638.511719 301.910156 633.097656 309.175781 C 626.832031 317.867188 619.570312 332.542969 619.570312 336.675781 C 619.570312 338.667969 618.285156 341.804688 616.71875 343.800781 C 614.15625 347.074219 613.445312 347.21875 609.597656 345.792969 C 605.753906 344.367188 604.898438 344.511719 601.480469 347.929688 C 598.347656 351.066406 597.632812 353.34375 596.921875 362.320312 C 595.78125 375.144531 593.929688 377.707031 582.964844 381.839844 C 562.738281 389.390625 534.109375 415.894531 534.109375 426.863281 C 534.109375 428.289062 533.113281 433.558594 531.832031 438.6875 C 530.691406 443.820312 529.410156 449.519531 529.125 451.226562 C 527.988281 456.355469 516.164062 469.464844 504.628906 478.296875 C 489.246094 490.125 488.105469 490.550781 474.289062 490.835938 C 457.625 491.121094 451.5 494.113281 441.675781 506.367188 C 433.269531 516.910156 430.847656 518.621094 424.582031 518.621094 C 419.597656 518.621094 414.46875 513.0625 414.46875 507.648438 C 414.46875 502.660156 411.335938 497.390625 403.929688 490.125 C 396.667969 483.140625 395.953125 480.578125 400.371094 476.875 C 404.785156 473.027344 403.21875 468.753906 395.242188 462.769531 C 382.992188 453.507812 377.296875 452.507812 337.984375 453.078125 C 328.15625 453.222656 325.023438 451.371094 321.605469 443.390625 C 320.039062 439.6875 315.765625 432.707031 312.347656 427.71875 L 306.082031 418.886719 L 307.078125 399.933594 C 307.933594 383.976562 308.503906 380.273438 311.351562 375.429688 C 315.765625 367.59375 316.050781 357.621094 311.921875 348.359375 C 308.21875 340.238281 302.519531 333.398438 299.101562 333.398438 C 297.820312 333.398438 296.109375 332.6875 295.257812 331.832031 C 292.835938 329.410156 277.308594 328.554688 273.324219 330.691406 C 271.472656 331.6875 265.347656 332.542969 259.507812 332.6875 C 251.246094 332.6875 248.683594 333.253906 247.257812 335.25 C 246.261719 336.53125 243.980469 337.671875 242.414062 337.671875 C 240.707031 337.671875 236.71875 340.238281 233.441406 343.371094 C 228.316406 348.214844 227.601562 349.640625 228.171875 353.628906 C 228.742188 357.476562 228.03125 359.472656 223.898438 364.316406 C 221.191406 367.734375 218.488281 370.441406 217.773438 370.441406 C 215.496094 370.441406 202.25 359.898438 202.25 358.1875 C 202.25 357.335938 203.246094 355.765625 204.386719 354.769531 C 207.519531 352.0625 206.949219 349.214844 202.390625 345.222656 C 198.40625 341.804688 198.40625 341.519531 200.539062 337.671875 C 202.960938 333.398438 202.109375 329.550781 198.40625 328.125 C 196.980469 327.699219 194.703125 326.273438 193.417969 325.132812 C 191 323.140625 188.71875 323.28125 179.460938 325.5625 C 176.613281 326.273438 174.332031 325.277344 168.496094 320.433594 C 161.65625 315.019531 161.085938 313.878906 160.089844 306.753906 C 159.09375 297.921875 161.800781 288.800781 167.210938 283.671875 C 170.347656 280.679688 185.160156 273.84375 203.675781 266.859375 C 208.800781 265.007812 219.339844 258.882812 227.175781 253.324219 C 240.847656 243.636719 241.84375 243.210938 252.8125 241.925781 C 266.628906 240.21875 274.605469 236.371094 284.003906 226.683594 C 287.851562 222.835938 292.691406 219.132812 294.828125 218.703125 C 296.824219 218.277344 302.378906 214 306.9375 209.441406 C 311.636719 204.742188 316.050781 200.894531 316.761719 200.894531 C 317.476562 200.894531 319.183594 201.890625 320.609375 203.171875 C 324.3125 206.449219 328.871094 204.457031 331.433594 198.328125 C 334.28125 191.207031 335.5625 190.636719 345.105469 191.773438 L 353.367188 192.628906 L 360.917969 184.652344 C 367.46875 177.953125 369.460938 176.671875 373.734375 176.671875 C 376.441406 176.671875 379.148438 175.960938 379.574219 175.246094 C 380.003906 174.394531 385.128906 173.824219 390.683594 173.824219 C 397.378906 173.679688 403.644531 172.683594 408.773438 170.832031 C 413.046875 169.265625 420.308594 167.269531 424.867188 166.554688 C 430.28125 165.703125 435.265625 163.847656 439.109375 161 L 445.09375 156.726562 L 451.074219 159.71875 C 459.050781 163.566406 466.882812 162.425781 473.863281 156.296875 L 478.992188 151.882812 L 487.25 156.441406 C 494.089844 160.289062 496.9375 161 504.484375 161 C 516.308594 161 522.289062 159.148438 527.84375 153.734375 C 531.832031 149.886719 540.664062 145.613281 545.078125 145.328125 C 545.933594 145.328125 547.785156 146.324219 548.921875 147.605469 Z M 548.921875 147.605469 "/>
</g>
</svg>
